M48
;DRILL file {KiCad 0.201506162246+5763~23~ubuntu14.04.1-product} date Mit 17 Jun 2015 12:32:41 CEST
;FORMAT={-:-/ absolute / metric / decimal}
FMAT,2
METRIC,TZ
T1C0.300
T2C0.400
T3C0.500
T4C0.600
T5C0.648
T6C0.650
T7C0.701
T8C0.800
T9C0.813
T10C0.899
T11C1.000
T12C1.016
T13C1.150
T14C1.397
T15C1.400
T16C1.500
T17C1.600
T18C1.628
T19C2.997
T20C3.000
T21C3.175
T22C3.249
%
G90
G05
M71
T1
X141.599Y-70.61
X141.78Y-70.1
X141.828Y-69.347
X145.03Y-67.85
X145.03Y-68.6
X145.03Y-69.35
X145.03Y-70.1
X145.03Y-70.85
X148.03Y-67.1
X148.03Y-67.85
X148.03Y-68.6
X148.03Y-69.35
X148.03Y-70.1
X148.03Y-70.85
X148.03Y-71.6
X148.78Y-67.1
X148.78Y-71.6
X149.53Y-67.1
X149.53Y-71.6
X150.28Y-67.1
X150.28Y-71.6
X151.03Y-67.1
X151.03Y-71.6
X151.28Y-67.85
X151.28Y-68.6
X151.28Y-69.35
X151.28Y-70.1
X151.28Y-70.85
X161.03Y-55.6
X161.03Y-56.35
X161.03Y-57.1
X161.03Y-57.85
X161.03Y-58.6
X161.78Y-55.6
X161.78Y-56.35
X161.78Y-57.1
X161.78Y-57.85
X161.78Y-58.6
X162.53Y-57.85
X162.53Y-58.6
X162.71Y-60.42
X162.78Y-64.6
X163.28Y-57.85
X163.28Y-58.6
X163.28Y-60.85
X163.28Y-64.1
X164.017Y-58.6
X164.03Y-57.85
X164.03Y-64.1
X164.03Y-64.85
X164.722Y-64.148
X164.78Y-57.85
X164.78Y-58.6
X164.78Y-60.85
X165.225Y-64.655
X165.53Y-57.85
X165.53Y-58.6
X165.53Y-60.85
X166.28Y-55.6
X166.28Y-56.35
X166.28Y-57.1
X166.28Y-57.85
X166.28Y-58.6
X167.03Y-55.6
X167.03Y-56.35
X167.03Y-57.1
X167.03Y-57.85
X167.03Y-58.6
X179.03Y-63.85
X179.28Y-64.6
X179.28Y-65.35
X179.33Y-78.5
X179.33Y-80.4
X179.33Y-82.1
X179.53Y-63.35
X179.56Y-62.63
X179.78Y-66.1
X180.28Y-62.6
X180.28Y-63.35
X180.53Y-66.158
X180.53Y-77.3
X180.53Y-83.3
X181.03Y-62.6
X181.13Y-83.3
X181.262Y-68.082
X181.28Y-68.85
X181.78Y-62.6
X181.78Y-69.1
X181.819Y-63.35
X182.037Y-66.123
X182.53Y-62.6
X182.53Y-63.35
X182.53Y-83.3
X182.78Y-65.85
X182.853Y-65.122
X183.13Y-77.4
X183.23Y-83.3
X184.03Y-77.4
X184.73Y-83.3
X184.78Y-99.6
X184.78Y-100.35
X184.78Y-101.1
X184.78Y-101.85
X185.13Y-79.4
X185.13Y-80.9
X188.03Y-100.1
X188.03Y-100.85
X188.03Y-101.6
X188.04Y-102.35
X191.03Y-98.6
X191.03Y-99.35
X191.03Y-100.1
X191.03Y-100.85
X191.03Y-101.6
X191.03Y-102.35
X191.03Y-103.1
X191.78Y-98.6
X191.78Y-103.1
X192.53Y-98.6
X192.53Y-103.1
X193.28Y-98.6
X193.28Y-103.1
X194.03Y-103.1
X194.03Y-98.6
X194.28Y-99.35
X194.28Y-100.1
X194.28Y-100.85
X194.28Y-101.6
X194.28Y-102.35
T2
X58.09Y-90.39
X59.414Y-89.023
X59.444Y-99.122
X59.612Y-91.641
X59.643Y-101.8
X62.355Y-104.378
X64.592Y-106.231
X64.656Y-97.573
X65.158Y-99.23
X66.29Y-91.44
X66.55Y-94.961
X67.29Y-87.84
X67.901Y-101.48
X69.58Y-68.475
X69.679Y-104.871
X69.79Y-98.64
X70.19Y-86.14
X70.441Y-107.053
X70.69Y-90.14
X70.69Y-98.64
X71.762Y-106.746
X72.151Y-100.613
X72.409Y-98.836
X72.748Y-105.32
X73.642Y-94.404
X74.03Y-68.2
X74.49Y-89.94
X74.678Y-126.846
X74.81Y-128.948
X75.39Y-103.04
X75.89Y-90.24
X76.951Y-95.678
X77.344Y-99.312
X77.35Y-134.536
X77.39Y-89.49
X77.39Y-105.54
X77.858Y-114.331
X78.488Y-99.123
X78.69Y-102.74
X78.874Y-134.536
X78.89Y-106.04
X78.915Y-130.924
X79.128Y-128.948
X79.44Y-90.79
X79.636Y-93.261
X80.237Y-96.885
X80.888Y-109.301
X80.906Y-94.912
X81.058Y-130.32
X81.29Y-105.955
X81.795Y-133.774
X81.885Y-137.078
X82.125Y-101.618
X82.13Y-96.547
X82.191Y-106.357
X82.43Y-110.832
X82.473Y-126.533
X83.19Y-105.54
X83.214Y-124.789
X83.286Y-103.154
X83.69Y-93.54
X83.827Y-126.281
X83.99Y-105.24
X84.129Y-115.544
X84.63Y-119.921
X84.74Y-88.64
X85.037Y-102.18
X85.04Y-89.84
X85.157Y-112.669
X85.39Y-125.74
X85.635Y-102.874
X85.968Y-100.888
X86.24Y-127.297
X86.367Y-131.488
X86.488Y-99.428
X86.545Y-102.938
X86.748Y-98.214
X86.83Y-112.3
X86.89Y-120.24
X87.51Y-100.144
X87.78Y-116.6
X88.03Y-114.1
X88.13Y-110.8
X88.346Y-91.42
X88.35Y-99.134
X88.475Y-100.652
X88.831Y-134.181
X88.836Y-102.842
X88.894Y-105.762
X89.03Y-109.1
X89.44Y-100.652
X89.542Y-94.658
X89.542Y-102.329
X89.542Y-129.075
X89.69Y-132.54
X89.83Y-121.5
X90.05Y-118.28
X90.158Y-115.897
X90.165Y-110.488
X90.406Y-102.786
X90.53Y-111.9
X90.957Y-119.2
X91.09Y-132.34
X91.28Y-105.85
X91.32Y-94.912
X91.32Y-124.51
X91.371Y-97.401
X91.764Y-109.221
X91.967Y-98.133
X92.09Y-112.24
X92.43Y-114.2
X92.53Y-117.85
X92.53Y-121.9
X92.59Y-127.17
X92.59Y-130.472
X92.63Y-123.
X92.8Y-120.262
X92.844Y-100.652
X92.844Y-119.042
X92.879Y-115.841
X92.895Y-111.219
X92.895Y-124.579
X92.946Y-98.976
X93.098Y-96.182
X93.28Y-105.6
X94.216Y-127.272
X94.52Y-93.845
X94.581Y-128.938
X94.876Y-87.099
X95.571Y-118.763
X95.578Y-123.754
X95.79Y-116.24
X95.89Y-112.54
X95.994Y-99.332
X95.994Y-101.313
X96.019Y-110.533
X96.019Y-111.498
X96.03Y-130.8
X96.414Y-118.271
X96.419Y-119.542
X96.603Y-96.08
X96.68Y-108.3
X96.89Y-110.54
X97.048Y-126.453
X97.488Y-123.349
X97.614Y-104.464
X97.615Y-118.271
X97.79Y-98.64
X97.79Y-112.44
X97.972Y-95.167
X97.99Y-96.24
X98.038Y-107.288
X98.051Y-100.627
X98.09Y-93.34
X98.112Y-130.535
X98.114Y-108.691
X98.371Y-122.567
X98.63Y-102.4
X98.69Y-132.24
X98.95Y-125.005
X98.99Y-134.34
X99.067Y-130.98
X99.53Y-103.6
X100.186Y-125.263
X100.261Y-113.048
X100.44Y-132.49
X100.464Y-115.232
X100.718Y-110.724
X100.82Y-107.815
X100.84Y-88.59
X101.29Y-97.54
X101.339Y-125.874
X101.39Y-93.74
X101.473Y-124.009
X101.487Y-119.054
X101.49Y-136.09
X101.496Y-126.721
X101.64Y-129.906
X101.99Y-116.04
X102.49Y-92.64
X102.49Y-108.94
X102.49Y-121.34
X102.966Y-104.712
X102.998Y-126.734
X103.058Y-103.845
X103.149Y-110.029
X103.386Y-125.876
X103.59Y-131.84
X103.843Y-129.268
X104.09Y-113.39
X104.325Y-136.517
X104.34Y-121.34
X104.79Y-131.84
X105.003Y-109.222
X105.089Y-110.062
X105.271Y-126.305
X105.69Y-115.74
X105.707Y-125.554
X105.79Y-113.34
X105.79Y-121.64
X106.039Y-126.728
X106.19Y-131.84
X106.284Y-107.284
X106.509Y-110.749
X106.687Y-121.599
X106.837Y-124.06
X106.957Y-103.307
X106.984Y-126.728
X107.182Y-125.889
X107.438Y-132.663
X107.448Y-111.679
X107.49Y-116.34
X107.539Y-121.663
X107.827Y-101.438
X108.105Y-104.235
X108.541Y-107.288
X108.587Y-133.051
X108.592Y-129.71
X108.884Y-112.87
X108.91Y-126.123
X108.93Y-98.4
X109.33Y-104.
X109.389Y-124.332
X109.41Y-118.895
X109.608Y-107.485
X109.69Y-110.14
X109.749Y-125.884
X109.862Y-112.184
X109.92Y-92.428
X110.067Y-103.075
X110.235Y-124.332
X110.319Y-132.414
X110.528Y-122.854
X110.556Y-126.734
X110.69Y-107.54
X110.769Y-130.111
X110.961Y-104.497
X111.43Y-112.
X111.434Y-102.379
X111.53Y-103.8
X111.61Y-83.8
X111.64Y-135.84
X111.835Y-121.097
X111.894Y-129.964
X111.944Y-111.341
X112.088Y-89.367
X112.09Y-91.445
X112.19Y-115.74
X112.587Y-122.013
X112.63Y-103.1
X112.634Y-109.673
X112.647Y-129.248
X112.669Y-107.289
X112.685Y-120.869
X113.536Y-120.767
X113.59Y-109.74
X113.615Y-119.318
X113.764Y-126.516
X114.19Y-88.99
X114.234Y-104.095
X114.28Y-130.176
X114.282Y-116.088
X114.29Y-122.24
X114.404Y-120.193
X114.63Y-100.4
X114.79Y-118.34
X114.942Y-128.186
X114.996Y-121.642
X115.069Y-97.198
X115.19Y-101.94
X115.307Y-131.966
X115.4Y-95.
X117.431Y-93.998
X117.53Y-118.35
X117.555Y-108.87
X117.588Y-123.455
X117.673Y-112.69
X117.89Y-121.54
X117.931Y-92.157
X117.98Y-57.8
X118.03Y-127.6
X118.118Y-105.931
X118.59Y-111.54
X118.63Y-124.6
X118.811Y-109.333
X119.057Y-93.642
X119.26Y-128.186
X119.43Y-118.4
X119.45Y-116.121
X120.04Y-89.74
X120.34Y-101.44
X120.764Y-127.578
X121.038Y-115.486
X122.89Y-96.49
X122.963Y-92.691
X123.07Y-86.911
X123.527Y-90.391
X123.95Y-117.774
X124.051Y-111.776
X124.137Y-93.631
X124.28Y-64.6
X124.482Y-95.757
X124.848Y-90.391
X125.102Y-121.328
X125.356Y-92.372
X125.39Y-125.44
X125.678Y-106.145
X125.69Y-99.59
X125.79Y-98.24
X125.79Y-107.84
X125.805Y-112.361
X125.829Y-96.232
X125.831Y-95.046
X125.864Y-115.994
X125.864Y-117.264
X125.864Y-118.534
X125.864Y-120.312
X126.29Y-125.44
X126.499Y-91.61
X126.524Y-107.374
X126.79Y-110.54
X127.119Y-105.886
X127.134Y-90.975
X127.18Y-98.
X127.19Y-125.44
X127.772Y-84.607
X127.795Y-107.248
X127.914Y-133.486
X128.15Y-93.515
X128.39Y-112.54
X128.59Y-124.44
X128.64Y-125.44
X128.714Y-114.834
X128.99Y-132.09
X129.166Y-94.531
X129.405Y-111.125
X129.44Y-109.89
X129.49Y-125.44
X129.547Y-131.361
X129.877Y-133.681
X129.89Y-114.84
X130.08Y-90.645
X130.279Y-102.573
X130.301Y-93.873
X130.309Y-95.039
X130.49Y-125.44
X131.39Y-125.44
X131.452Y-129.964
X131.589Y-132.801
X131.943Y-100.193
X132.037Y-107.852
X132.336Y-102.42
X132.536Y-99.599
X132.59Y-131.94
X132.752Y-103.505
X132.89Y-130.34
X132.976Y-92.245
X133.334Y-107.757
X133.865Y-90.594
X134.368Y-107.756
X134.373Y-93.896
X134.866Y-97.745
X135.008Y-100.246
X135.008Y-101.516
X135.633Y-100.84
X136.024Y-92.118
X136.024Y-111.93
X136.09Y-131.54
X136.278Y-100.246
X136.278Y-101.516
X136.764Y-107.753
X136.99Y-131.54
X137.048Y-96.629
X137.154Y-90.265
X137.802Y-107.758
X137.802Y-95.653
X137.89Y-131.54
X138.158Y-103.446
X138.877Y-98.93
X139.067Y-94.407
X139.123Y-105.529
X139.565Y-90.39
X139.58Y-89.527
X139.815Y-96.09
X140.032Y-104.145
X140.088Y-100.551
X140.19Y-118.229
X140.19Y-119.245
X141.14Y-90.565
X141.23Y-66.
X141.39Y-126.64
X141.866Y-105.885
X142.29Y-126.64
X142.515Y-98.79
X143.09Y-126.64
X144.03Y-119.6
X144.03Y-130.6
X144.59Y-99.64
X144.914Y-91.102
X147.336Y-100.099
X147.336Y-104.093
X147.59Y-95.34
X147.59Y-97.24
X147.64Y-117.54
X148.03Y-123.6
X148.47Y-93.896
X148.978Y-91.356
X149.232Y-94.658
X149.351Y-89.544
X149.59Y-117.44
X149.69Y-113.94
X168.03Y-122.85
T3
X85.13Y-114.1
X152.53Y-44.6
X153.53Y-44.6
X154.53Y-44.6
X155.03Y-45.6
X155.28Y-46.85
X156.78Y-46.85
X157.03Y-45.6
X157.53Y-44.6
X158.53Y-44.6
X159.53Y-44.6
X161.53Y-44.6
X162.53Y-44.6
X163.53Y-44.6
X164.03Y-45.6
X164.28Y-46.85
X165.78Y-46.85
X166.03Y-45.6
X166.53Y-44.6
X167.53Y-44.6
X168.53Y-44.6
X171.53Y-44.6
X172.53Y-44.6
X173.53Y-44.6
X174.03Y-45.6
X174.28Y-46.85
X175.78Y-46.85
X176.03Y-45.6
X176.43Y-81.5
X176.43Y-81.5
X176.53Y-44.6
X177.53Y-44.6
X178.53Y-44.6
X180.53Y-44.6
X181.53Y-44.6
X182.53Y-44.6
X183.03Y-45.6
X183.28Y-46.85
X184.78Y-46.85
X185.03Y-45.6
X185.53Y-44.6
X186.53Y-44.6
X187.53Y-44.6
X190.03Y-44.6
X191.03Y-44.6
X192.03Y-44.6
X192.53Y-45.6
X192.78Y-46.85
X194.28Y-46.85
X194.53Y-45.6
X195.03Y-44.6
X196.03Y-44.6
X197.03Y-44.6
X199.53Y-66.6
X199.53Y-68.1
X200.28Y-88.85
X200.28Y-90.35
X200.28Y-113.85
X200.28Y-115.35
X200.78Y-66.35
X200.78Y-68.35
X201.53Y-88.6
X201.53Y-90.6
X201.53Y-113.6
X201.53Y-115.6
X201.78Y-63.85
X201.78Y-64.85
X201.78Y-65.85
X201.78Y-68.85
X201.78Y-69.85
X201.78Y-70.85
X202.53Y-86.1
X202.53Y-87.1
X202.53Y-88.1
X202.53Y-91.1
X202.53Y-92.1
X202.53Y-93.1
X202.53Y-111.1
X202.53Y-112.1
X202.53Y-113.1
X202.53Y-116.1
X202.53Y-117.1
X202.53Y-118.1
X211.18Y-82.43
X211.18Y-83.93
X211.28Y-45.35
X211.28Y-46.85
X211.28Y-57.35
X211.28Y-58.85
X211.28Y-70.35
X211.28Y-71.85
X211.28Y-95.35
X211.28Y-96.85
X211.28Y-107.35
X211.28Y-108.85
X211.28Y-120.35
X211.28Y-121.85
X211.28Y-132.35
X211.28Y-133.85
X212.43Y-82.18
X212.43Y-84.18
X212.53Y-45.1
X212.53Y-47.1
X212.53Y-57.1
X212.53Y-59.1
X212.53Y-70.1
X212.53Y-72.1
X212.53Y-95.1
X212.53Y-97.1
X212.53Y-107.1
X212.53Y-109.1
X212.53Y-120.1
X212.53Y-122.1
X212.53Y-132.1
X212.53Y-134.1
X213.43Y-79.68
X213.43Y-80.68
X213.43Y-81.68
X213.43Y-84.68
X213.43Y-85.68
X213.43Y-86.68
X213.53Y-42.6
X213.53Y-43.6
X213.53Y-44.6
X213.53Y-47.6
X213.53Y-48.6
X213.53Y-49.6
X213.53Y-54.6
X213.53Y-55.6
X213.53Y-56.6
X213.53Y-59.6
X213.53Y-60.6
X213.53Y-61.6
X213.53Y-67.6
X213.53Y-68.6
X213.53Y-69.6
X213.53Y-72.6
X213.53Y-73.6
X213.53Y-74.6
X213.53Y-92.6
X213.53Y-93.6
X213.53Y-94.6
X213.53Y-97.6
X213.53Y-98.6
X213.53Y-99.6
X213.53Y-104.6
X213.53Y-105.6
X213.53Y-106.6
X213.53Y-109.6
X213.53Y-110.6
X213.53Y-111.6
X213.53Y-117.6
X213.53Y-118.6
X213.53Y-119.6
X213.53Y-122.6
X213.53Y-123.6
X213.53Y-124.6
X213.53Y-129.6
X213.53Y-130.6
X213.53Y-131.6
X213.53Y-134.6
X213.53Y-135.6
X213.53Y-136.6
X220.53Y-52.1
X220.53Y-53.1
X220.53Y-54.1
X220.53Y-57.1
X220.53Y-58.1
X220.53Y-59.1
X220.53Y-77.1
X220.53Y-78.1
X220.53Y-79.1
X220.53Y-82.1
X220.53Y-83.1
X220.53Y-84.1
X220.53Y-102.1
X220.53Y-103.1
X220.53Y-104.1
X220.53Y-107.1
X220.53Y-108.1
X220.53Y-109.1
X220.53Y-127.1
X220.53Y-128.1
X220.53Y-129.1
X220.53Y-132.1
X220.53Y-133.1
X220.53Y-134.1
X221.53Y-54.6
X221.53Y-56.6
X221.53Y-79.6
X221.53Y-81.6
X221.53Y-104.6
X221.53Y-106.6
X221.53Y-129.6
X221.53Y-131.6
X222.78Y-54.85
X222.78Y-56.35
X222.78Y-79.85
X222.78Y-81.35
X222.78Y-104.85
X222.78Y-106.35
X222.78Y-129.85
X222.78Y-131.35
X236.8Y-82.85
X236.8Y-83.65
X236.8Y-83.65
X236.83Y-58.2
X236.83Y-59.
X236.83Y-59.
X236.83Y-133.2
X236.83Y-134.
X236.83Y-134.
X236.86Y-107.8
X236.86Y-108.6
X236.86Y-108.6
X237.65Y-83.65
X237.7Y-82.85
X237.71Y-59.
X237.71Y-133.99
X237.73Y-58.2
X237.73Y-133.2
X237.74Y-108.6
X237.76Y-107.8
T4
X61.18Y-80.2
X61.73Y-75.3
X64.33Y-71.3
X65.38Y-84.6
X65.63Y-78.9
X68.73Y-75.3
X68.78Y-78.6
X69.38Y-82.8
X70.53Y-68.9
X71.03Y-76.2
X72.38Y-78.6
X72.38Y-84.6
X73.43Y-70.3
X74.13Y-65.7
X75.53Y-78.85
X75.78Y-82.
X76.73Y-75.2
X77.63Y-68.8
X78.33Y-62.7
X78.53Y-57.7
X78.83Y-79.4
X79.03Y-83.9
X81.13Y-53.3
X81.284Y-55.332
X81.33Y-67.
X82.13Y-57.2
X82.23Y-52.4
X83.23Y-81.1
X83.63Y-56.2
X83.63Y-58.6
X84.03Y-83.7
X84.53Y-65.4
X85.13Y-84.1
X86.03Y-55.9
X88.03Y-57.1
X88.23Y-66.627
X88.73Y-80.7
X88.83Y-84.6
X90.23Y-56.927
X90.43Y-66.5
X93.23Y-73.2
X93.43Y-57.7
X94.444Y-81.186
X94.53Y-75.7
X94.63Y-61.4
X94.73Y-67.6
X96.23Y-77.6
X96.63Y-61.7
X97.307Y-57.151
X97.43Y-72.3
X98.33Y-69.1
X99.43Y-77.3
X99.53Y-75.2
X100.43Y-78.7
X101.43Y-68.1
X102.73Y-76.4
X103.53Y-72.4
X104.23Y-65.3
X105.73Y-69.4
X106.73Y-81.573
X106.78Y-138.85
X106.78Y-140.35
X107.63Y-72.3
X109.28Y-138.85
X109.28Y-140.35
X109.43Y-83.2
X110.73Y-71.
X111.53Y-138.85
X111.53Y-140.35
X111.73Y-56.7
X112.93Y-99.9
X113.33Y-56.8
X113.53Y-140.1
X115.78Y-139.1
X116.21Y-84.65
X116.83Y-139.1
X117.53Y-70.85
X117.93Y-79.3
X118.73Y-77.3
X118.78Y-138.616
X120.03Y-73.3
X120.03Y-138.616
X121.717Y-81.144
X121.73Y-67.3
X121.996Y-138.277
X122.21Y-84.68
X122.33Y-78.1
X122.73Y-69.3
X123.53Y-80.6
X124.73Y-67.9
X125.21Y-84.65
X125.78Y-67.1
X126.728Y-80.957
X127.356Y-77.883
X128.355Y-80.593
X128.53Y-76.7
X129.03Y-73.3
X130.03Y-75.
X130.03Y-80.2
X130.03Y-84.6
X131.33Y-57.
X131.391Y-79.98
X132.03Y-70.85
X132.83Y-57.
X137.53Y-70.85
X138.55Y-68.518
X139.53Y-71.6
X140.93Y-69.4
X141.28Y-63.35
X141.53Y-79.2
X141.53Y-83.9
X142.28Y-63.35
X142.894Y-77.236
X143.894Y-78.236
X144.03Y-79.1
X144.53Y-73.846
X144.552Y-75.387
X145.53Y-64.1
X145.53Y-65.1
X147.53Y-53.1
X147.53Y-54.6
X148.53Y-81.6
X151.318Y-82.766
X152.03Y-69.35
X152.441Y-78.734
X152.78Y-75.35
X153.03Y-82.35
X154.53Y-82.6
X154.53Y-119.6
X154.954Y-95.738
X155.41Y-94.21
X155.53Y-74.85
X155.53Y-78.35
X156.02Y-92.26
X156.03Y-124.85
X156.28Y-119.35
X156.28Y-120.6
X156.28Y-121.85
X156.28Y-123.1
X156.28Y-127.1
X156.4Y-75.1
X156.89Y-92.27
X157.03Y-78.35
X157.096Y-129.535
X157.28Y-132.6
X157.435Y-93.499
X158.03Y-82.85
X158.469Y-130.99
X158.49Y-86.102
X158.53Y-137.6
X158.78Y-58.85
X158.78Y-87.35
X159.33Y-135.35
X159.78Y-58.85
X159.78Y-93.35
X159.943Y-85.715
X160.03Y-119.6
X160.03Y-120.65
X160.03Y-121.85
X160.03Y-123.1
X160.259Y-86.717
X160.483Y-80.147
X160.54Y-90.99
X160.58Y-76.73
X160.76Y-72.49
X160.83Y-81.601
X161.28Y-110.85
X161.42Y-90.99
X161.78Y-100.6
X162.03Y-81.8
X162.13Y-107.
X162.3Y-93.78
X163.096Y-73.784
X163.13Y-93.76
X163.28Y-114.35
X163.28Y-117.35
X164.03Y-60.812
X164.28Y-118.35
X166.784Y-84.523
X167.28Y-74.35
X167.83Y-105.03
X167.999Y-84.677
X168.28Y-110.85
X168.53Y-59.85
X170.03Y-59.85
X170.43Y-109.9
X171.78Y-61.1
X172.53Y-119.85
X172.7Y-75.89
X172.93Y-78.32
X173.003Y-84.314
X173.02Y-77.16
X173.03Y-60.1
X173.03Y-80.85
X173.03Y-81.85
X173.03Y-83.1
X173.53Y-106.1
X174.03Y-60.1
X174.259Y-86.827
X174.78Y-65.1
X174.78Y-74.1
X175.059Y-68.277
X175.713Y-69.256
X176.117Y-86.827
X176.53Y-80.35
X176.6Y-78.13
X176.78Y-76.6
X177.02Y-112.61
X177.28Y-116.6
X177.28Y-118.1
X177.28Y-125.1
X177.325Y-71.3
X177.38Y-71.3
X177.53Y-73.25
X178.03Y-88.2
X178.06Y-59.7
X178.28Y-58.35
X178.834Y-71.1
X179.04Y-118.3
X179.044Y-86.336
X179.35Y-117.1
X179.78Y-71.1
X180.822Y-97.421
X181.03Y-63.35
X181.216Y-91.935
X181.262Y-66.341
X181.305Y-71.097
X181.53Y-86.35
X181.78Y-116.05
X181.86Y-114.02
X182.53Y-68.6
X182.53Y-89.35
X182.53Y-91.3
X182.88Y-70.85
X183.133Y-93.781
X183.18Y-121.85
X183.18Y-123.1
X183.301Y-92.697
X183.705Y-89.362
X183.754Y-97.348
X183.78Y-64.7
X184.23Y-71.07
X184.53Y-67.1
X184.53Y-120.1
X184.53Y-120.85
X184.676Y-74.298
X185.03Y-78.3
X185.071Y-96.393
X185.23Y-71.2
X185.53Y-63.35
X185.53Y-66.35
X185.78Y-85.85
X186.03Y-75.6
X186.28Y-71.35
X186.28Y-74.35
X186.43Y-90.1
X186.53Y-66.35
X186.53Y-123.35
X186.53Y-124.1
X186.85Y-104.6
X187.13Y-91.1
X187.43Y-95.4
X187.43Y-96.7
X187.53Y-68.35
X187.53Y-70.6
X187.53Y-73.35
X187.78Y-87.85
X188.015Y-89.358
X188.28Y-93.85
X188.28Y-127.35
X188.28Y-128.1
X188.58Y-68.4
X188.68Y-86.871
X188.78Y-70.6
X188.78Y-73.35
X189.28Y-76.85
X189.28Y-78.1
X189.93Y-91.6
X190.03Y-105.85
X190.206Y-138.718
X190.28Y-55.6
X190.28Y-95.85
X190.28Y-96.85
X191.03Y-93.1
X191.53Y-104.6
X191.53Y-138.85
X191.669Y-89.711
X191.799Y-92.102
X192.03Y-86.005
X192.03Y-87.6
X192.28Y-76.85
X192.28Y-78.1
X192.28Y-79.35
X192.47Y-84.2
X192.518Y-93.866
X192.53Y-82.7
X192.53Y-104.6
X193.03Y-75.6
X193.28Y-57.85
X193.28Y-80.6
X193.28Y-81.6
X193.28Y-96.6
X195.495Y-121.75
X196.28Y-95.85
X196.78Y-108.6
X197.03Y-119.85
X198.783Y-81.85
X199.53Y-105.35
X200.03Y-62.6
X201.53Y-109.1
X201.78Y-84.6
X201.78Y-94.85
X202.53Y-130.1
X202.53Y-134.2
X203.03Y-72.6
X203.03Y-119.85
X203.28Y-109.596
X204.28Y-84.6
X204.53Y-69.1
X204.78Y-134.35
X204.93Y-72.314
X205.03Y-51.1
X205.03Y-63.35
X205.78Y-121.85
X207.207Y-66.6
X207.53Y-62.6
X222.805Y-124.842
X222.873Y-74.916
X222.876Y-49.888
X222.895Y-99.804
X225.53Y-48.7
X225.53Y-48.7
X225.53Y-49.85
X225.53Y-73.7
X225.53Y-73.7
X225.53Y-74.85
X225.53Y-98.7
X225.53Y-98.7
X225.53Y-99.85
X225.53Y-123.7
X225.53Y-123.7
X225.53Y-124.85
X225.63Y-50.9
X225.63Y-50.9
X225.63Y-75.9
X225.63Y-75.9
X225.63Y-100.9
X225.63Y-100.9
X225.63Y-125.9
X225.63Y-125.9
X226.755Y-45.028
X226.756Y-94.806
X226.771Y-70.113
X226.867Y-120.081
X228.03Y-128.2
X228.037Y-97.18
X228.069Y-122.616
X228.079Y-47.526
X228.111Y-72.325
X229.401Y-114.143
X229.406Y-139.511
X229.492Y-89.227
X229.73Y-64.6
X230.18Y-51.2
X230.23Y-50.2
X230.23Y-75.2
X230.23Y-76.5
X230.23Y-100.2
X230.23Y-101.5
X230.23Y-125.2
X230.23Y-126.5
X231.5Y-86.15
X231.53Y-61.5
X231.53Y-136.5
X231.56Y-111.1
X232.55Y-82.45
X232.58Y-57.8
X232.58Y-132.8
X232.61Y-107.4
X232.9Y-86.25
X232.93Y-61.6
X232.93Y-136.6
X232.96Y-111.2
X233.297Y-129.812
X233.3Y-54.897
X233.31Y-79.484
X233.4Y-104.408
X234.48Y-104.363
X234.487Y-54.885
X234.496Y-129.751
X234.568Y-79.412
X234.78Y-137.2
X235.Y-82.75
X235.Y-83.75
X235.03Y-58.1
X235.03Y-59.1
X235.03Y-133.1
X235.06Y-107.7
X235.06Y-108.7
X235.073Y-134.051
X236.23Y-61.3
X236.25Y-86.
X236.31Y-110.95
X239.Y-84.75
X239.Y-84.75
X239.03Y-60.1
X239.03Y-60.1
X239.03Y-135.1
X239.03Y-135.1
X239.06Y-109.7
X239.06Y-109.7
X239.6Y-82.75
X239.63Y-58.1
X239.63Y-133.1
X239.66Y-107.7
X239.981Y-79.462
X240.052Y-54.833
X240.105Y-104.35
X240.11Y-129.801
X240.7Y-82.65
X240.7Y-82.65
X240.73Y-58.
X240.73Y-58.
X240.73Y-133.
X240.73Y-133.
X240.76Y-107.6
X240.76Y-107.6
X241.23Y-129.763
X241.233Y-54.823
X241.237Y-79.412
X241.365Y-104.388
T5
X122.562Y-97.315
X122.562Y-99.113
X134.652Y-109.354
X134.652Y-111.153
T6
X107.59Y-95.74
X107.59Y-97.01
X108.86Y-95.74
X108.86Y-97.01
X110.13Y-95.74
X110.13Y-97.01
X111.4Y-95.74
X111.4Y-97.01
X112.67Y-95.74
X112.67Y-97.01
T7
X60.916Y-87.914
X60.916Y-92.766
X60.916Y-98.074
X60.916Y-102.926
T8
X163.73Y-130.21
X163.73Y-132.21
X163.73Y-134.21
X166.23Y-131.21
X166.23Y-133.21
X166.23Y-135.21
X175.15Y-130.2
X175.15Y-132.2
X175.15Y-134.2
X177.65Y-131.2
X177.65Y-133.2
X177.65Y-135.2
T9
X92.03Y-78.52
X92.03Y-81.06
X92.03Y-83.6
X98.03Y-78.52
X98.03Y-81.06
X98.03Y-83.6
X104.03Y-78.52
X104.03Y-81.06
X104.03Y-83.6
X120.53Y-108.12
X120.53Y-110.66
X120.53Y-113.2
X123.07Y-108.12
X123.07Y-110.66
X123.07Y-113.2
X195.03Y-60.6
X195.53Y-78.85
X197.57Y-60.6
X197.57Y-127.21
X197.73Y-101.81
X198.07Y-78.85
X200.11Y-60.6
X200.11Y-127.21
X200.27Y-101.81
X200.61Y-78.85
X202.65Y-127.21
X202.81Y-101.81
T10
X71.Y-110.66
X71.Y-113.2
X71.Y-115.74
X71.Y-118.28
X71.Y-120.82
X73.54Y-109.39
X73.54Y-111.93
X73.54Y-114.47
X73.54Y-117.01
X73.54Y-119.55
T11
X62.76Y-58.29
X62.76Y-60.83
X62.76Y-63.37
X62.76Y-65.91
X65.3Y-58.29
X65.3Y-60.83
X65.3Y-63.37
X65.3Y-65.91
X149.53Y-59.85
X154.53Y-59.85
X161.68Y-132.71
X164.98Y-127.06
X164.98Y-138.36
X173.1Y-132.7
X176.4Y-127.05
X176.4Y-138.35
T12
X60.571Y-108.481
X60.571Y-111.021
X60.571Y-119.189
X60.571Y-121.729
X75.826Y-87.8
X78.366Y-87.8
X79.28Y-69.1
X79.28Y-71.64
X79.28Y-74.18
X80.398Y-115.74
X80.398Y-118.28
X80.398Y-120.82
X80.398Y-123.36
X80.906Y-87.8
X82.78Y-69.1
X82.78Y-71.64
X82.78Y-74.18
X83.446Y-87.8
X84.97Y-136.06
X85.986Y-87.8
X86.28Y-69.1
X86.28Y-71.64
X86.28Y-74.18
X87.51Y-136.06
X88.526Y-87.8
X90.05Y-136.06
X90.78Y-69.1
X90.78Y-71.64
X90.78Y-74.18
X91.066Y-87.8
X92.59Y-136.06
X93.606Y-87.8
X95.13Y-136.06
X96.146Y-87.8
X96.146Y-92.88
X97.67Y-136.06
X98.686Y-87.8
X100.21Y-136.06
X102.75Y-87.8
X102.75Y-136.06
X105.29Y-87.8
X107.83Y-87.8
X107.83Y-136.06
X110.37Y-87.8
X110.37Y-136.06
X112.91Y-87.8
X112.91Y-136.06
X115.45Y-87.8
X115.45Y-136.06
X116.72Y-96.182
X116.72Y-98.722
X116.72Y-101.262
X116.72Y-103.802
X117.99Y-87.8
X117.99Y-136.06
X120.53Y-87.8
X120.53Y-136.06
X123.07Y-136.06
X125.61Y-87.8
X125.61Y-136.06
X128.15Y-87.8
X130.69Y-87.8
X130.69Y-136.06
X133.23Y-87.8
X133.23Y-136.06
X135.77Y-87.8
X135.77Y-136.06
X138.31Y-87.8
X138.31Y-136.06
X140.85Y-87.8
X140.85Y-136.06
X140.92Y-108.82
X140.92Y-111.36
X143.39Y-87.8
X143.39Y-136.06
X143.46Y-108.82
X143.46Y-111.36
X145.93Y-136.06
X146.Y-108.82
X146.Y-111.36
X148.47Y-136.06
X151.01Y-87.8
X151.01Y-90.34
X151.01Y-92.88
X151.01Y-95.42
X151.01Y-97.96
X151.01Y-100.5
X151.01Y-103.04
X151.01Y-105.58
X151.01Y-108.12
X151.01Y-110.66
X151.01Y-113.2
X151.01Y-115.74
X151.01Y-118.28
X151.01Y-120.82
X151.01Y-123.36
X151.01Y-125.9
X151.01Y-128.44
X151.01Y-130.98
X153.55Y-87.8
X153.55Y-90.34
X153.55Y-92.88
X153.55Y-95.42
X153.55Y-97.96
X153.55Y-100.5
X153.55Y-103.04
X153.55Y-105.58
X153.55Y-108.12
X153.55Y-110.66
X153.55Y-113.2
X153.55Y-115.74
X153.55Y-118.28
X153.55Y-120.82
X153.55Y-123.36
X153.55Y-125.9
X153.55Y-128.44
X153.55Y-130.98
X159.28Y-66.6
X161.82Y-66.6
X164.36Y-66.6
X165.28Y-107.35
X167.82Y-107.35
X170.36Y-107.35
X194.45Y-55.6
X195.45Y-74.1
X196.99Y-55.6
X197.45Y-97.35
X197.45Y-122.85
X197.99Y-74.1
X199.53Y-55.6
X199.99Y-97.35
X199.99Y-122.85
X200.53Y-74.1
X202.53Y-97.35
X202.53Y-122.85
X209.99Y-52.1
X209.99Y-77.1
X209.99Y-102.1
X209.99Y-127.1
X212.53Y-52.1
X212.53Y-77.1
X212.53Y-102.1
X212.53Y-127.1
X220.03Y-46.56
X220.03Y-49.1
X220.03Y-71.56
X220.03Y-74.1
X220.03Y-96.56
X220.03Y-99.1
X220.03Y-121.56
X220.03Y-124.1
T13
X72.28Y-57.77
X72.28Y-62.85
X74.82Y-59.04
X74.82Y-61.58
X111.28Y-73.6
X112.55Y-76.14
X115.09Y-76.14
X116.36Y-73.6
X132.53Y-73.1
X133.8Y-75.64
X136.34Y-75.64
X137.61Y-73.1
T14
X70.33Y-48.6
X75.41Y-48.6
X80.49Y-48.6
X85.57Y-48.6
X90.65Y-48.6
X95.73Y-48.6
X103.45Y-48.6
X108.53Y-48.6
X113.61Y-48.6
X121.45Y-48.6
X126.53Y-48.6
X131.61Y-48.6
X139.49Y-48.6
X144.57Y-48.6
T15
X156.03Y-49.1
X165.03Y-49.1
X175.03Y-49.1
X184.03Y-49.1
X193.53Y-49.1
X197.28Y-67.35
X198.03Y-89.6
X198.03Y-114.6
X208.93Y-83.18
X209.03Y-46.1
X209.03Y-58.1
X209.03Y-71.1
X209.03Y-96.1
X209.03Y-108.1
X209.03Y-121.1
X209.03Y-133.1
X217.03Y-42.6
X217.03Y-44.6
X217.03Y-46.6
X217.03Y-48.6
X217.03Y-50.6
X217.03Y-52.6
X217.03Y-54.6
X217.03Y-56.6
X217.03Y-58.6
X217.03Y-60.6
X217.03Y-62.6
X217.03Y-64.6
X217.03Y-66.6
X217.03Y-69.1
X217.03Y-71.6
X217.03Y-73.6
X217.03Y-75.6
X217.03Y-77.6
X217.03Y-79.6
X217.03Y-81.6
X217.03Y-83.6
X217.03Y-85.6
X217.03Y-87.6
X217.03Y-89.6
X217.03Y-91.6
X217.03Y-94.1
X217.03Y-96.6
X217.03Y-98.6
X217.03Y-100.6
X217.03Y-102.6
X217.03Y-104.6
X217.03Y-106.6
X217.03Y-108.6
X217.03Y-110.6
X217.03Y-112.6
X217.03Y-114.6
X217.03Y-116.6
X217.03Y-119.1
X217.03Y-121.6
X217.03Y-123.6
X217.03Y-125.6
X217.03Y-127.6
X217.03Y-129.6
X217.03Y-131.6
X217.03Y-133.6
X217.03Y-135.6
X217.03Y-137.6
X217.03Y-139.6
X217.03Y-141.6
X219.03Y-66.6
X219.03Y-91.6
X219.03Y-116.6
X221.03Y-66.6
X221.03Y-91.6
X221.03Y-116.6
X223.03Y-66.6
X223.03Y-91.6
X223.03Y-116.6
X225.03Y-55.6
X225.03Y-66.6
X225.03Y-80.6
X225.03Y-91.6
X225.03Y-105.6
X225.03Y-116.6
X225.03Y-130.6
X227.03Y-66.6
X227.03Y-91.6
X227.03Y-116.6
X229.03Y-66.6
X229.03Y-91.6
X229.03Y-116.6
X231.03Y-66.6
X231.03Y-91.6
X231.03Y-116.6
X233.03Y-66.6
X233.03Y-91.6
X233.03Y-116.6
X235.03Y-66.6
X235.03Y-91.6
X235.03Y-116.6
X237.03Y-66.6
X237.03Y-91.6
X237.03Y-116.6
X239.03Y-66.6
X239.03Y-91.6
X239.03Y-116.6
X241.03Y-66.6
X241.03Y-91.6
X241.03Y-116.6
T16
X153.48Y-46.55
X153.48Y-51.65
X158.58Y-46.55
X158.58Y-51.65
X162.48Y-46.55
X162.48Y-51.65
X167.58Y-46.55
X167.58Y-51.65
X172.48Y-46.55
X172.48Y-51.65
X177.58Y-46.55
X177.58Y-51.65
X181.48Y-46.55
X181.48Y-51.65
X186.58Y-46.55
X186.58Y-51.65
X190.98Y-46.55
X190.98Y-51.65
X194.73Y-64.8
X194.73Y-69.9
X195.48Y-87.05
X195.48Y-92.15
X195.48Y-112.05
X195.48Y-117.15
X196.08Y-46.55
X196.08Y-51.65
X199.83Y-64.8
X199.83Y-69.9
X200.58Y-87.05
X200.58Y-92.15
X200.58Y-112.05
X200.58Y-117.15
X206.38Y-80.63
X206.38Y-85.73
X206.48Y-43.55
X206.48Y-48.65
X206.48Y-55.55
X206.48Y-60.65
X206.48Y-68.55
X206.48Y-73.65
X206.48Y-93.55
X206.48Y-98.65
X206.48Y-105.55
X206.48Y-110.65
X206.48Y-118.55
X206.48Y-123.65
X206.48Y-130.55
X206.48Y-135.65
X211.48Y-80.63
X211.48Y-85.73
X211.58Y-43.55
X211.58Y-48.65
X211.58Y-55.55
X211.58Y-60.65
X211.58Y-68.55
X211.58Y-73.65
X211.58Y-93.55
X211.58Y-98.65
X211.58Y-105.55
X211.58Y-110.65
X211.58Y-118.55
X211.58Y-123.65
X211.58Y-130.55
X211.58Y-135.65
X222.48Y-53.05
X222.48Y-58.15
X222.48Y-78.05
X222.48Y-83.15
X222.48Y-103.05
X222.48Y-108.15
X222.48Y-128.05
X222.48Y-133.15
X227.58Y-53.05
X227.58Y-58.15
X227.58Y-78.05
X227.58Y-83.15
X227.58Y-103.05
X227.58Y-108.15
X227.58Y-128.05
X227.58Y-133.15
X238.03Y-46.6
X238.03Y-71.6
X238.03Y-96.6
X238.03Y-121.6
T17
X235.49Y-44.06
X235.49Y-49.14
X235.49Y-69.06
X235.49Y-74.14
X235.49Y-94.06
X235.49Y-99.14
X235.49Y-119.06
X235.49Y-124.14
X240.57Y-44.06
X240.57Y-49.14
X240.57Y-69.06
X240.57Y-74.14
X240.57Y-94.06
X240.57Y-99.14
X240.57Y-119.06
X240.57Y-124.14
T18
X67.698Y-107.361
X67.698Y-122.849
T19
X61.554Y-130.345
X64.553Y-135.044
X67.553Y-130.345
T20
X61.03Y-45.6
X201.53Y-45.1
X201.53Y-138.1
X220.53Y-63.1
X220.53Y-88.1
X220.53Y-113.1
X220.53Y-138.1
X229.53Y-45.1
X229.53Y-70.1
X229.53Y-95.1
X229.53Y-120.1
X238.53Y-113.1
X238.53Y-138.1
X239.03Y-63.1
X239.03Y-88.1
T21
X71.Y-136.06
X72.27Y-87.8
X122.816Y-103.04
X123.07Y-130.98
X147.2Y-87.8
X153.55Y-136.06
T22
X64.65Y-109.39
X64.65Y-120.82
T7
X58.065Y-86.715G85X58.464Y-86.715
G05
X58.065Y-93.965G85X58.464Y-93.965
G05
X58.065Y-96.875G85X58.464Y-96.875
G05
X58.065Y-104.125G85X58.464Y-104.125
G05
T0
M30
